# Blender 5.0.1
# www.blender.org
o Barrel
v 0.000000 0.000000 -0.804843
v 0.000000 2.000000 -0.804843
v 0.402422 0.000000 -0.697015
v 0.402422 2.000000 -0.697015
v 0.697015 0.000000 -0.402422
v 0.697015 2.000000 -0.402422
v 0.804843 0.000000 0.000000
v 0.804843 2.000000 0.000000
v 0.697015 0.000000 0.402422
v 0.697015 2.000000 0.402422
v 0.402422 0.000000 0.697015
v 0.402422 2.000000 0.697015
v 0.000000 0.000000 0.804843
v 0.000000 2.000000 0.804843
v -0.402422 0.000000 0.697015
v -0.402422 2.000000 0.697015
v -0.697015 0.000000 0.402422
v -0.697015 2.000000 0.402422
v -0.804843 0.000000 0.000000
v -0.804843 2.000000 0.000000
v -0.697015 0.000000 -0.402422
v -0.697015 2.000000 -0.402422
v -0.402422 0.000000 -0.697015
v -0.402422 2.000000 -0.697015
v 0.000000 0.666667 -1.000000
v 0.000000 1.333333 -1.000000
v 0.500000 1.333333 -0.866025
v 0.500000 0.666667 -0.866025
v 0.866025 1.333333 -0.500000
v 0.866025 0.666667 -0.500000
v 1.000000 1.333333 0.000000
v 1.000000 0.666667 0.000000
v 0.866025 1.333333 0.500000
v 0.866025 0.666667 0.500000
v 0.500000 1.333333 0.866025
v 0.500000 0.666667 0.866025
v 0.000000 1.333333 1.000000
v 0.000000 0.666667 1.000000
v -0.500000 1.333333 0.866025
v -0.500000 0.666667 0.866025
v -0.866025 1.333333 0.500000
v -0.866025 0.666667 0.500000
v -1.000000 1.333333 0.000000
v -1.000000 0.666667 0.000000
v -0.866025 1.333333 -0.500000
v -0.866025 0.666667 -0.500000
v -0.500000 1.333333 -0.866025
v -0.500000 0.666667 -0.866025
vn -0.0000 0.1387 -0.9903
vn -0.0000 0.2809 -0.9597
vn 0.4799 0.2809 -0.8311
vn 0.4952 0.1387 -0.8577
vn 0.8311 0.2809 -0.4799
vn 0.8577 0.1387 -0.4952
vn 0.9597 0.2809 -0.0000
vn 0.9903 0.1387 -0.0000
vn 0.8311 0.2809 0.4799
vn 0.8577 0.1387 0.4952
vn 0.4799 0.2809 0.8311
vn 0.4952 0.1387 0.8577
vn -0.0000 0.2809 0.9597
vn -0.0000 0.1387 0.9903
vn -0.4799 0.2809 0.8311
vn -0.4952 0.1387 0.8577
vn -0.8311 0.2809 0.4799
vn -0.8577 0.1387 0.4952
vn -0.9597 0.2809 -0.0000
vn -0.9903 0.1387 -0.0000
vn -0.8311 0.2809 -0.4799
vn -0.8577 0.1387 -0.4952
vn -0.0000 1.0000 -0.0000
vn -0.4799 0.2809 -0.8311
vn -0.4952 0.1387 -0.8577
vn -0.0000 -1.0000 -0.0000
vn -0.4799 -0.2809 -0.8311
vn -0.4952 -0.1387 -0.8577
vn -0.0000 -0.1387 -0.9903
vn -0.0000 -0.2809 -0.9597
vn -0.8311 -0.2809 -0.4799
vn -0.8577 -0.1387 -0.4952
vn -0.9597 -0.2809 -0.0000
vn -0.9903 -0.1387 -0.0000
vn -0.8311 -0.2809 0.4799
vn -0.8577 -0.1387 0.4952
vn -0.4799 -0.2809 0.8311
vn -0.4952 -0.1387 0.8577
vn -0.0000 -0.2809 0.9597
vn -0.0000 -0.1387 0.9903
vn 0.4799 -0.2809 0.8311
vn 0.4952 -0.1387 0.8577
vn 0.8311 -0.2809 0.4799
vn 0.8577 -0.1387 0.4952
vn 0.9597 -0.2809 -0.0000
vn 0.9903 -0.1387 -0.0000
vn 0.8311 -0.2809 -0.4799
vn 0.8577 -0.1387 -0.4952
vn 0.4799 -0.2809 -0.8311
vn 0.4952 -0.1387 -0.8577
vt 1.000000 0.833333
vt 1.000000 1.000000
vt 0.916667 1.000000
vt 0.916667 0.833333
vt 0.833333 1.000000
vt 0.833333 0.833333
vt 0.750000 1.000000
vt 0.750000 0.833333
vt 0.666667 1.000000
vt 0.666667 0.833333
vt 0.583333 1.000000
vt 0.583333 0.833333
vt 0.500000 1.000000
vt 0.500000 0.833333
vt 0.416667 1.000000
vt 0.416667 0.833333
vt 0.333333 1.000000
vt 0.333333 0.833333
vt 0.250000 1.000000
vt 0.250000 0.833333
vt 0.166667 1.000000
vt 0.166667 0.833333
vt 0.370000 0.457846
vt 0.250000 0.490000
vt 0.130000 0.457846
vt 0.042154 0.370000
vt 0.010000 0.250000
vt 0.042154 0.130000
vt 0.130000 0.042154
vt 0.250000 0.010000
vt 0.370000 0.042154
vt 0.457846 0.130000
vt 0.490000 0.250000
vt 0.457846 0.370000
vt 0.083333 1.000000
vt 0.083333 0.833333
vt 0.000000 1.000000
vt 0.000000 0.833333
vt 0.750000 0.490000
vt 0.870000 0.457846
vt 0.957846 0.370000
vt 0.990000 0.250000
vt 0.957846 0.130000
vt 0.870000 0.042154
vt 0.750000 0.010000
vt 0.630000 0.042154
vt 0.542154 0.130000
vt 0.510000 0.250000
vt 0.542154 0.370000
vt 0.630000 0.457846
vt 0.083333 0.500000
vt 0.083333 0.666667
vt 0.000000 0.666667
vt 0.000000 0.500000
vt 0.166667 0.500000
vt 0.166667 0.666667
vt 0.250000 0.500000
vt 0.250000 0.666667
vt 0.333333 0.500000
vt 0.333333 0.666667
vt 0.416667 0.500000
vt 0.416667 0.666667
vt 0.500000 0.500000
vt 0.500000 0.666667
vt 0.583333 0.500000
vt 0.583333 0.666667
vt 0.666667 0.500000
vt 0.666667 0.666667
vt 0.750000 0.500000
vt 0.750000 0.666667
vt 0.833333 0.500000
vt 0.833333 0.666667
vt 0.916667 0.500000
vt 0.916667 0.666667
vt 1.000000 0.500000
vt 1.000000 0.666667
s 1
f 26/1/1 2/2/2 4/3/3 27/4/4
f 27/4/4 4/3/3 6/5/5 29/6/6
f 29/6/6 6/5/5 8/7/7 31/8/8
f 31/8/8 8/7/7 10/9/9 33/10/10
f 33/10/10 10/9/9 12/11/11 35/12/12
f 35/12/12 12/11/11 14/13/13 37/14/14
f 37/14/14 14/13/13 16/15/15 39/16/16
f 39/16/16 16/15/15 18/17/17 41/18/18
f 41/18/18 18/17/17 20/19/19 43/20/20
f 43/20/20 20/19/19 22/21/21 45/22/22
s 0
f 4/23/23 2/24/23 24/25/23 22/26/23 20/27/23 18/28/23 16/29/23 14/30/23 12/31/23 10/32/23 8/33/23 6/34/23
s 1
f 45/22/22 22/21/21 24/35/24 47/36/25
f 47/36/25 24/35/24 2/37/2 26/38/1
s 0
f 1/39/26 3/40/26 5/41/26 7/42/26 9/43/26 11/44/26 13/45/26 15/46/26 17/47/26 19/48/26 21/49/26 23/50/26
s 1
f 23/51/27 48/52/28 25/53/29 1/54/30
f 48/52/28 47/36/25 26/38/1 25/53/29
f 21/55/31 46/56/32 48/52/28 23/51/27
f 46/56/32 45/22/22 47/36/25 48/52/28
f 19/57/33 44/58/34 46/56/32 21/55/31
f 44/58/34 43/20/20 45/22/22 46/56/32
f 17/59/35 42/60/36 44/58/34 19/57/33
f 42/60/36 41/18/18 43/20/20 44/58/34
f 15/61/37 40/62/38 42/60/36 17/59/35
f 40/62/38 39/16/16 41/18/18 42/60/36
f 13/63/39 38/64/40 40/62/38 15/61/37
f 38/64/40 37/14/14 39/16/16 40/62/38
f 11/65/41 36/66/42 38/64/40 13/63/39
f 36/66/42 35/12/12 37/14/14 38/64/40
f 9/67/43 34/68/44 36/66/42 11/65/41
f 34/68/44 33/10/10 35/12/12 36/66/42
f 7/69/45 32/70/46 34/68/44 9/67/43
f 32/70/46 31/8/8 33/10/10 34/68/44
f 5/71/47 30/72/48 32/70/46 7/69/45
f 30/72/48 29/6/6 31/8/8 32/70/46
f 3/73/49 28/74/50 30/72/48 5/71/47
f 28/74/50 27/4/4 29/6/6 30/72/48
f 1/75/30 25/76/29 28/74/50 3/73/49
f 25/76/29 26/1/1 27/4/4 28/74/50
