<?xml version="1.0" encoding="UTF-8" standalone="no"?>
<!-- Created with Inkscape (http://www.inkscape.org/) -->

<svg
   width="200"
   height="200"
   viewBox="0 0 200.00002 200"
   version="1.1"
   id="svg1"
   xmlns="http://www.w3.org/2000/svg"
   xmlns:svg="http://www.w3.org/2000/svg">
  <defs
     id="defs1">
    <marker
       style="overflow:visible"
       id="Dot-5"
       refX="0"
       refY="0"
       orient="auto"
       markerWidth="1"
       markerHeight="1"
       viewBox="0 0 1 1"
       preserveAspectRatio="xMidYMid">
      <path
         transform="scale(0.5)"
         style="fill:context-stroke;fill-rule:evenodd;stroke:none"
         d="M 5,0 C 5,2.76 2.76,5 0,5 -2.76,5 -5,2.76 -5,0 c 0,-2.76 2.3,-5 5,-5 2.76,0 5,2.24 5,5 z"
         id="path17-4" />
    </marker>
    <marker
       style="overflow:visible"
       id="marker3-2"
       refX="0"
       refY="0"
       orient="auto"
       markerWidth="1"
       markerHeight="1"
       viewBox="0 0 1 1"
       preserveAspectRatio="xMidYMid">
      <path
         transform="scale(0.5)"
         style="fill:context-stroke;fill-rule:evenodd;stroke:none"
         d="M 5,0 C 5,2.76 2.76,5 0,5 -2.76,5 -5,2.76 -5,0 c 0,-2.76 2.3,-5 5,-5 2.76,0 5,2.24 5,5 z"
         id="path3-6" />
    </marker>
    <marker
       style="overflow:visible"
       id="marker2-0"
       refX="0"
       refY="0"
       orient="auto"
       markerWidth="1"
       markerHeight="1"
       viewBox="0 0 1 1"
       preserveAspectRatio="xMidYMid">
      <path
         transform="scale(0.5)"
         style="fill:context-stroke;fill-rule:evenodd;stroke:none"
         d="M 5,0 C 5,2.76 2.76,5 0,5 -2.76,5 -5,2.76 -5,0 c 0,-2.76 2.3,-5 5,-5 2.76,0 5,2.24 5,5 z"
         id="path2-8" />
    </marker>
  </defs>
  <g
     id="layer1"
     transform="translate(-378.42851,-132.75339)"
     style="mix-blend-mode:normal">
    <path
       style="mix-blend-mode:normal;fill:none;stroke:#19aeff;stroke-width:3.07045;stroke-linecap:round;stroke-linejoin:round;stroke-dasharray:none;stroke-dashoffset:0;marker-start:url(#Dot-5);marker-mid:url(#marker3-2);marker-end:url(#marker2-0)"
       d="m 422.56836,202.86705 94.57898,-37.45806 17.15545,134.66761 z"
       id="path26-5" />
    <text
       xml:space="preserve"
       style="font-size:14.8058px;font-family:sans-serif;-inkscape-font-specification:'sans-serif, Normal';mix-blend-mode:normal;fill:#cccccc;stroke-width:2.56255;stroke-linejoin:round;stroke-dasharray:none"
       x="525.64618"
       y="162.64288"
       id="text3-2"><tspan
         id="tspan3-9"
         x="525.64618"
         y="162.64288"
         style="stroke-width:2.56255">0</tspan></text>
    <text
       xml:space="preserve"
       style="font-size:14.8058px;font-family:sans-serif;-inkscape-font-specification:'sans-serif, Normal';mix-blend-mode:normal;fill:#cccccc;stroke-width:2.56255;stroke-linejoin:round;stroke-dasharray:none"
       x="402.87869"
       y="194.60446"
       id="text3-5-1"><tspan
         id="tspan3-0-7"
         x="402.87869"
         y="194.60446"
         style="stroke-width:2.56255">1</tspan></text>
    <text
       xml:space="preserve"
       style="font-size:14.8058px;font-family:sans-serif;-inkscape-font-specification:'sans-serif, Normal';mix-blend-mode:normal;fill:#cccccc;stroke-width:2.56255;stroke-linejoin:round;stroke-dasharray:none"
       x="507.49536"
       y="307.29446"
       id="text4-8"><tspan
         id="tspan4-3"
         x="507.49536"
         y="307.29446"
         style="stroke-width:2.56255">2</tspan></text>
  </g>
</svg>
